# xmcd
#
# Track frame offsets:
#	150
#	13332
#	28190
#	44566
#	61242
#	77528
#	92957
#	108813
#	120682
#	137191
#	152330
#	168156
#	182268
#	197056
#	210005
#	223770
#
# Disc length: 3165 seconds
#
# Revision: 0
# Processed by: cddbd v1.5.1PL0 Copyright (c) Steve Scherf et al.
# Submitted via: dBpowerAMP V4.0
#
DISCID=cf0c5b10
DTITLE=Laurelyn Carter - Laurelyn Carter
DYEAR=2005
DGENRE=Country
TTITLE0=I want to kiss you
TTITLE1=We Were
TTITLE2=If you didn't love me
TTITLE3=Somebody's Baby
TTITLE4=Run My Way
TTITLE5=Blue Skies
TTITLE6=I bit off more than I can chew
TTITLE7=No way
TTITLE8=Homecoming Queen
TTITLE9=My Turn To Fall
TTITLE10=Show Me
TTITLE11=Baby, I'm in Love
TTITLE12=All because of you
TTITLE13=Mama ain't here
TTITLE14=In my Room
TTITLE15=The Singer
EXTD=Laurelyn Carter, upcoming Country Star I guess...
EXTT0=
EXTT1=
EXTT2=
EXTT3=
EXTT4=
EXTT5=
EXTT6=
EXTT7=
EXTT8=
EXTT9=
EXTT10=
EXTT11=
EXTT12=
EXTT13=
EXTT14=
EXTT15=
PLAYORDER=
